<svg width="22" height="22" viewBox="0 0 22 22" fill="none" xmlns="http://www.w3.org/2000/svg">
<path d="M11 21.5625C8.91094 21.5625 6.86879 20.943 5.13179 19.7824C3.3948 18.6218 2.04098 16.9721 1.24153 15.0421C0.442077 13.1121 0.232904 10.9883 0.64046 8.93936C1.04802 6.89044 2.054 5.00838 3.53119 3.53119C5.00838 2.054 6.89044 1.04802 8.93936 0.64046C10.9883 0.232904 13.1121 0.442077 15.0421 1.24153C16.9721 2.04098 18.6218 3.3948 19.7824 5.13179C20.943 6.86879 21.5625 8.91094 21.5625 11C21.5625 13.8014 20.4497 16.488 18.4688 18.4688C16.488 20.4497 13.8014 21.5625 11 21.5625ZM11 2.0625C9.23233 2.0625 7.50436 2.58668 6.0346 3.56874C4.56483 4.55081 3.41929 5.94666 2.74283 7.57977C2.06637 9.21289 1.88938 11.0099 2.23424 12.7436C2.57909 14.4773 3.43031 16.0698 4.68024 17.3198C5.93017 18.5697 7.52268 19.4209 9.25638 19.7658C10.9901 20.1106 12.7871 19.9336 14.4202 19.2572C16.0534 18.5807 17.4492 17.4352 18.4313 15.9654C19.4133 14.4956 19.9375 12.7677 19.9375 11C19.9375 8.62963 18.9959 6.35634 17.3198 4.68024C15.6437 3.00413 13.3704 2.0625 11 2.0625Z" fill="#C4C4C4"/>
<path d="M11 16.6875C10.7845 16.6875 10.5778 16.6019 10.4255 16.4495C10.2731 16.2972 10.1875 16.0905 10.1875 15.875V6.125C10.1875 5.90951 10.2731 5.70285 10.4255 5.55048C10.5778 5.3981 10.7845 5.3125 11 5.3125C11.2155 5.3125 11.4222 5.3981 11.5745 5.55048C11.7269 5.70285 11.8125 5.90951 11.8125 6.125V15.875C11.8125 16.0905 11.7269 16.2972 11.5745 16.4495C11.4222 16.6019 11.2155 16.6875 11 16.6875Z" fill="#C4C4C4"/>
<path d="M15.875 11.8125H6.125C5.90951 11.8125 5.70285 11.7269 5.55048 11.5745C5.3981 11.4222 5.3125 11.2155 5.3125 11C5.3125 10.7845 5.3981 10.5778 5.55048 10.4255C5.70285 10.2731 5.90951 10.1875 6.125 10.1875H15.875C16.0905 10.1875 16.2972 10.2731 16.4495 10.4255C16.6019 10.5778 16.6875 10.7845 16.6875 11C16.6875 11.2155 16.6019 11.4222 16.4495 11.5745C16.2972 11.7269 16.0905 11.8125 15.875 11.8125Z" fill="#C4C4C4"/>
</svg>
